<svg xmlns="http://www.w3.org/2000/svg" viewBox="0 0 128 128" width="128" height="128">
  <!-- 고해상도 128x128 아이콘 -->
  <defs>
    <linearGradient id="bgGradient" x1="0%" y1="0%" x2="100%" y2="100%">
      <stop offset="0%" style="stop-color:#3B82F6;stop-opacity:1" />
      <stop offset="100%" style="stop-color:#1E40AF;stop-opacity:1" />
    </linearGradient>
    <filter id="shadow" x="-20%" y="-20%" width="140%" height="140%">
      <feDropShadow dx="2" dy="2" stdDeviation="3" flood-color="#000" flood-opacity="0.3"/>
    </filter>
  </defs>
  
  <!-- 배경 원형 -->
  <circle cx="64" cy="64" r="56" fill="url(#bgGradient)" filter="url(#shadow)"/>
  
  <!-- 스크린샷 프레임 -->
  <rect x="24" y="32" width="80" height="64" rx="8" fill="#FFFFFF" stroke="#E5E7EB" stroke-width="2"/>
  
  <!-- 이미지 내용 (더 상세한 그림) -->
  <polygon points="32,80 40,72 48,76 56,68 64,72 72,64 80,68 88,60 96,80" fill="#10B981"/>
  <polygon points="32,80 40,76 48,80 56,72 64,76 72,68 80,72 88,64 96,80" fill="#059669" opacity="0.7"/>
  <circle cx="80" cy="48" r="6" fill="#F59E0B"/>
  <circle cx="80" cy="48" r="3" fill="#FEF3C7"/>
  
  <!-- 주석 요소들 -->
  <!-- 숫자 1 -->
  <circle cx="40" cy="48" r="8" fill="#EF4444"/>
  <circle cx="40" cy="48" r="6" fill="#FCA5A5" opacity="0.5"/>
  <text x="40" y="53" text-anchor="middle" fill="white" font-family="Arial, sans-serif" font-size="10" font-weight="bold">1</text>
  
  <!-- 화살표 -->
  <path d="M60 40 L75 45 L70 48 L75 51 L60 56 L65 48 Z" fill="#8B5CF6"/>
  <path d="M62 42 L73 46 L69 48 L73 50 L62 54 L66 48 Z" fill="#C4B5FD" opacity="0.6"/>
  
  <!-- 텍스트 표시선 -->
  <line x1="85" y1="65" x2="100" y2="65" stroke="#F97316" stroke-width="2"/>
  <text x="102" y="69" fill="#F97316" font-family="Arial, sans-serif" font-size="8" font-weight="bold">TEXT</text>
  
  <!-- 사각형 도형 -->
  <rect x="50" y="75" width="12" height="8" fill="none" stroke="#06B6D4" stroke-width="2"/>
  
  <!-- 캡처 코너 표시 (선택 영역) -->
  <path d="M20 28 L20 20 L28 20" stroke="#3B82F6" stroke-width="3" fill="none" stroke-linecap="round"/>
  <path d="M100 20 L108 20 L108 28" stroke="#3B82F6" stroke-width="3" fill="none" stroke-linecap="round"/>
  <path d="M108 100 L108 108 L100 108" stroke="#3B82F6" stroke-width="3" fill="none" stroke-linecap="round"/>
  <path d="M28 108 L20 108 L20 100" stroke="#3B82F6" stroke-width="3" fill="none" stroke-linecap="round"/>
  
  <!-- 캡처 점선 효과 -->
  <rect x="22" y="30" width="84" height="68" fill="none" stroke="#3B82F6" stroke-width="1" stroke-dasharray="4,2" opacity="0.5"/>
</svg>