<svg xmlns="http://www.w3.org/2000/svg" viewBox="0 0 48 48" width="48" height="48">
  <!-- 중간 크기 48x48 아이콘 -->
  <circle cx="24" cy="24" r="20" fill="#3B82F6" stroke="#1E40AF" stroke-width="2"/>
  <rect x="9" y="12" width="30" height="24" rx="3" fill="#FFFFFF" stroke="#E5E7EB" stroke-width="1"/>
  
  <!-- 이미지 내용 -->
  <polygon points="12,30 18,24 21,27 27,21 36,30" fill="#10B981"/>
  <circle cx="30" cy="18" r="2" fill="#F59E0B"/>
  
  <!-- 주석 요소들 -->
  <circle cx="15" cy="18" r="3" fill="#EF4444"/>
  <text x="15" y="20.5" text-anchor="middle" fill="white" font-family="Arial" font-size="4" font-weight="bold">1</text>
  
  <path d="M22 15 L28 17 L26 18 L28 19 L22 21 L24 18 Z" fill="#8B5CF6"/>
  
  <!-- 캡처 코너 -->
  <path d="M7 10 L7 7 L10 7" stroke="#3B82F6" stroke-width="2" fill="none"/>
  <path d="M38 7 L41 7 L41 10" stroke="#3B82F6" stroke-width="2" fill="none"/>
  <path d="M41 38 L41 41 L38 41" stroke="#3B82F6" stroke-width="2" fill="none"/>
  <path d="M10 41 L7 41 L7 38" stroke="#3B82F6" stroke-width="2" fill="none"/>
</svg>